# This file uses centimeters as units for non-parametric coordinates.

mtllib barrel.mtl
g default
v 0.779415 0.000000 0.000000
v 0.834819 0.803306 -0.481983
v 0.963966 0.803306 0.000000
v 0.674994 0.000000 -0.389708
v 0.481983 0.803306 -0.834819
v 0.389708 0.000000 -0.674994
v 0.000000 0.803306 -0.963966
v 0.000000 0.000000 -0.779415
v -0.481983 0.803306 -0.834819
v -0.389708 0.000000 -0.674994
v -0.834819 0.803306 -0.481983
v -0.674994 0.000000 -0.389708
v -0.963966 0.803306 0.000000
v -0.779415 0.000000 0.000000
v -0.834819 0.803306 0.481983
v -0.674994 0.000000 0.389708
v -0.481983 0.803306 0.834819
v -0.389708 0.000000 0.674994
v 0.000000 0.803306 0.963966
v 0.000000 0.000000 0.779415
v 0.481983 0.803306 0.834819
v 0.389708 0.000000 0.674994
v 0.834819 0.803306 0.481983
v 0.674994 0.000000 0.389708
v 0.834819 1.767271 -0.481983
v 0.963966 1.767271 0.000000
v 0.481983 1.767271 -0.834819
v 0.000000 1.767271 -0.963966
v -0.481983 1.767271 -0.834819
v -0.834819 1.767271 -0.481983
v -0.963966 1.767271 0.000000
v -0.834819 1.767271 0.481983
v -0.481983 1.767271 0.834819
v 0.000000 1.767271 0.963966
v 0.481983 1.767271 0.834819
v 0.834819 1.767271 0.481983
v 0.674994 2.570578 -0.389708
v 0.779415 2.570578 0.000000
v 0.389708 2.570578 -0.674994
v 0.000000 2.570578 -0.779415
v -0.389708 2.570578 -0.674994
v -0.674994 2.570578 -0.389708
v -0.779415 2.570578 0.000000
v -0.674994 2.570578 0.389708
v -0.389708 2.570578 0.674994
v 0.000000 2.570578 0.779415
v 0.389708 2.570578 0.674994
v 0.674994 2.570578 0.389708
vt 0.008300 0.000000
vt 0.083600 0.250000
vt 0.000000 0.250000
vt 0.091600 0.000000
vt 0.166900 0.250000
vt 0.174900 0.000000
vt 0.250200 0.250000
vt 0.258200 0.000000
vt 0.333500 0.250000
vt 0.341400 0.000000
vt 0.416700 0.250000
vt 0.424700 0.000000
vt 0.500000 0.250000
vt 0.508000 0.000000
vt 0.583300 0.250000
vt 0.591300 0.000000
vt 0.666600 0.250000
vt 0.674500 0.000000
vt 0.749800 0.250000
vt 0.757800 0.000000
vt 0.833100 0.250000
vt 0.841100 0.000000
vt 0.916400 0.250000
vt 0.924400 0.000000
vt 1.000000 0.250000
vt 0.083600 0.500000
vt 0.000000 0.500000
vt 0.166900 0.500000
vt 0.250200 0.500000
vt 0.333500 0.500000
vt 0.416700 0.500000
vt 0.500000 0.500000
vt 0.583300 0.500000
vt 0.666600 0.500000
vt 0.749800 0.500000
vt 0.833100 0.500000
vt 0.916400 0.500000
vt 1.000000 0.500000
vt 0.075700 0.740000
vt 0.008300 0.740000
vt 0.159000 0.740000
vt 0.091600 0.740000
vt 0.242200 0.740000
vt 0.174900 0.740000
vt 0.325500 0.740000
vt 0.258200 0.740000
vt 0.408800 0.740000
vt 0.341400 0.740000
vt 0.492100 0.740000
vt 0.424700 0.740000
vt 0.575300 0.740000
vt 0.508000 0.740000
vt 0.658600 0.740000
vt 0.591300 0.740000
vt 0.741900 0.740000
vt 0.674500 0.740000
vt 0.825200 0.740000
vt 0.757800 0.740000
vt 0.908400 0.740000
vt 0.841100 0.740000
vt 0.991700 0.740000
vt 0.924400 0.740000
vt 0.219000 0.782400
vt 0.251900 0.840200
vt 0.161600 0.748700
vt 0.251400 0.906800
vt 0.217700 0.964200
vt 0.075700 0.000000
vt 0.159000 0.000000
vt 0.242200 0.000000
vt 0.325500 0.000000
vt 0.408800 0.000000
vt 0.492100 0.000000
vt 0.575300 0.000000
vt 0.658600 0.000000
vt 0.741900 0.000000
vt 0.825200 0.000000
vt 0.908400 0.000000
vt 0.991700 0.000000
vt 0.159800 0.997000
vt 0.093300 0.996600
vt 0.035900 0.962900
vt 0.003100 0.905000
vt 0.003500 0.838500
vt 0.037200 0.781100
vt 0.095100 0.748200
vt 0.251900 0.840200
vt 0.251400 0.906800
vt 0.217700 0.964200
vt 0.217700 0.964200
vt 0.217700 0.964200
vt 0.217700 0.964200
vt 0.217700 0.964200
vt 0.159800 0.997000
vt 0.093300 0.996600
vt 0.093300 0.996600
vt 0.035900 0.962900
vt 0.003100 0.905000
vt 0.003100 0.905000
vt 0.003500 0.838500
vt 0.037200 0.781100
vt 0.093300 0.996600
vt 0.003100 0.905000
vt 0.037200 0.781100
vt 0.037200 0.781100
vt 0.095100 0.748200
vt 0.161600 0.748700
vt 0.161600 0.748700
vt 0.219000 0.782400
vt 0.251900 0.840200
vt 0.037200 0.781100
vt 0.161600 0.748700
vt 0.251900 0.840200
vt 0.093300 0.996600
vt 0.037200 0.781100
vt 0.251900 0.840200
vt 0.093300 0.996600
vt 0.251900 0.840200
vn 0.974612 -0.223903 0.000000
vn 0.860723 -0.110603 -0.496913
vn 0.993865 -0.110596 0.000000
vn 0.844030 -0.223908 -0.487317
vn 0.496913 -0.110603 -0.860723
vn 0.860723 -0.110603 -0.496913
vn 0.487317 -0.223908 -0.844030
vn 0.000000 -0.110596 -0.993865
vn 0.496913 -0.110603 -0.860723
vn 0.000000 -0.223903 -0.974612
vn -0.496913 -0.110603 -0.860723
vn 0.000000 -0.110596 -0.993865
vn -0.487317 -0.223908 -0.844030
vn -0.860723 -0.110603 -0.496913
vn -0.496913 -0.110603 -0.860723
vn -0.844030 -0.223908 -0.487317
vn -0.993865 -0.110596 0.000000
vn -0.860723 -0.110603 -0.496913
vn -0.974612 -0.223903 0.000000
vn -0.860723 -0.110603 0.496913
vn -0.993865 -0.110596 0.000000
vn -0.844030 -0.223908 0.487317
vn -0.496913 -0.110603 0.860723
vn -0.860723 -0.110603 0.496913
vn -0.487317 -0.223908 0.844030
vn 0.000000 -0.110596 0.993865
vn -0.496913 -0.110603 0.860723
vn 0.000000 -0.223903 0.974612
vn 0.496913 -0.110603 0.860723
vn 0.000000 -0.110596 0.993865
vn 0.487317 -0.223908 0.844030
vn 0.860723 -0.110603 0.496913
vn 0.496913 -0.110603 0.860723
vn 0.844030 -0.223908 0.487317
vn 0.993865 -0.110596 0.000000
vn 0.860723 -0.110603 0.496913
vn 0.993865 -0.110596 0.000000
vn 0.860723 0.110603 -0.496913
vn 0.993865 0.110596 0.000000
vn 0.860723 -0.110603 -0.496913
vn 0.496913 0.110603 -0.860723
vn 0.860723 0.110603 -0.496913
vn 0.496913 -0.110603 -0.860723
vn 0.000000 0.110596 -0.993865
vn 0.496913 0.110603 -0.860723
vn 0.000000 -0.110596 -0.993865
vn -0.496913 0.110603 -0.860723
vn 0.000000 0.110596 -0.993865
vn -0.496913 -0.110603 -0.860723
vn -0.860723 0.110603 -0.496913
vn -0.496913 0.110603 -0.860723
vn -0.860723 -0.110603 -0.496913
vn -0.993865 0.110596 0.000000
vn -0.860723 0.110603 -0.496913
vn -0.993865 -0.110596 0.000000
vn -0.860723 0.110603 0.496913
vn -0.993865 0.110596 0.000000
vn -0.860723 -0.110603 0.496913
vn -0.496913 0.110603 0.860723
vn -0.860723 0.110603 0.496913
vn -0.496913 -0.110603 0.860723
vn 0.000000 0.110596 0.993865
vn -0.496913 0.110603 0.860723
vn 0.000000 -0.110596 0.993865
vn 0.496913 0.110603 0.860723
vn 0.000000 0.110596 0.993865
vn 0.496913 -0.110603 0.860723
vn 0.860723 0.110603 0.496913
vn 0.496913 0.110603 0.860723
vn 0.860723 -0.110603 0.496913
vn 0.993865 0.110596 0.000000
vn 0.860723 0.110603 0.496913
vn 0.993865 0.110596 0.000000
vn 0.844030 0.223908 -0.487317
vn 0.974612 0.223903 0.000000
vn 0.860723 0.110603 -0.496913
vn 0.487317 0.223908 -0.844030
vn 0.844030 0.223908 -0.487317
vn 0.496913 0.110603 -0.860723
vn 0.000000 0.223903 -0.974612
vn 0.487317 0.223908 -0.844030
vn 0.000000 0.110596 -0.993865
vn -0.487317 0.223908 -0.844030
vn 0.000000 0.223903 -0.974612
vn -0.496913 0.110603 -0.860723
vn -0.844030 0.223908 -0.487317
vn -0.487317 0.223908 -0.844030
vn -0.860723 0.110603 -0.496913
vn -0.974612 0.223903 0.000000
vn -0.844030 0.223908 -0.487317
vn -0.993865 0.110596 0.000000
vn -0.844030 0.223908 0.487317
vn -0.974612 0.223903 0.000000
vn -0.860723 0.110603 0.496913
vn -0.487317 0.223908 0.844030
vn -0.844030 0.223908 0.487317
vn -0.496913 0.110603 0.860723
vn 0.000000 0.223903 0.974612
vn -0.487317 0.223908 0.844030
vn 0.000000 0.110596 0.993865
vn 0.487317 0.223908 0.844030
vn 0.000000 0.223903 0.974612
vn 0.496913 0.110603 0.860723
vn 0.844030 0.223908 0.487317
vn 0.487317 0.223908 0.844030
vn 0.860723 0.110603 0.496913
vn 0.974612 0.223903 0.000000
vn 0.844030 0.223908 0.487317
vn 0.000000 -1.000000 0.000000
vn 0.000000 -1.000000 0.000000
vn 0.000000 -1.000000 0.000000
vn 0.000000 1.000000 0.000000
vn 0.000000 1.000000 0.000000
vn 0.000000 1.000000 0.000000
vn 0.974612 -0.223903 0.000000
vn 0.844030 -0.223908 -0.487317
vn 0.860723 -0.110603 -0.496913
vn 0.844030 -0.223908 -0.487317
vn 0.487317 -0.223908 -0.844030
vn 0.496913 -0.110603 -0.860723
vn 0.487317 -0.223908 -0.844030
vn 0.000000 -0.223903 -0.974612
vn 0.000000 -0.110596 -0.993865
vn 0.000000 -0.223903 -0.974612
vn -0.487317 -0.223908 -0.844030
vn -0.496913 -0.110603 -0.860723
vn -0.487317 -0.223908 -0.844030
vn -0.844030 -0.223908 -0.487317
vn -0.860723 -0.110603 -0.496913
vn -0.844030 -0.223908 -0.487317
vn -0.974612 -0.223903 0.000000
vn -0.993865 -0.110596 0.000000
vn -0.974612 -0.223903 0.000000
vn -0.844030 -0.223908 0.487317
vn -0.860723 -0.110603 0.496913
vn -0.844030 -0.223908 0.487317
vn -0.487317 -0.223908 0.844030
vn -0.496913 -0.110603 0.860723
vn -0.487317 -0.223908 0.844030
vn 0.000000 -0.223903 0.974612
vn 0.000000 -0.110596 0.993865
vn 0.000000 -0.223903 0.974612
vn 0.487317 -0.223908 0.844030
vn 0.496913 -0.110603 0.860723
vn 0.487317 -0.223908 0.844030
vn 0.844030 -0.223908 0.487317
vn 0.860723 -0.110603 0.496913
vn 0.844030 -0.223908 0.487317
vn 0.974612 -0.223903 0.000000
vn 0.993865 -0.110596 0.000000
vn 0.993865 -0.110596 0.000000
vn 0.860723 -0.110603 -0.496913
vn 0.860723 0.110603 -0.496913
vn 0.860723 -0.110603 -0.496913
vn 0.496913 -0.110603 -0.860723
vn 0.496913 0.110603 -0.860723
vn 0.496913 -0.110603 -0.860723
vn 0.000000 -0.110596 -0.993865
vn 0.000000 0.110596 -0.993865
vn 0.000000 -0.110596 -0.993865
vn -0.496913 -0.110603 -0.860723
vn -0.496913 0.110603 -0.860723
vn -0.496913 -0.110603 -0.860723
vn -0.860723 -0.110603 -0.496913
vn -0.860723 0.110603 -0.496913
vn -0.860723 -0.110603 -0.496913
vn -0.993865 -0.110596 0.000000
vn -0.993865 0.110596 0.000000
vn -0.993865 -0.110596 0.000000
vn -0.860723 -0.110603 0.496913
vn -0.860723 0.110603 0.496913
vn -0.860723 -0.110603 0.496913
vn -0.496913 -0.110603 0.860723
vn -0.496913 0.110603 0.860723
vn -0.496913 -0.110603 0.860723
vn 0.000000 -0.110596 0.993865
vn 0.000000 0.110596 0.993865
vn 0.000000 -0.110596 0.993865
vn 0.496913 -0.110603 0.860723
vn 0.496913 0.110603 0.860723
vn 0.496913 -0.110603 0.860723
vn 0.860723 -0.110603 0.496913
vn 0.860723 0.110603 0.496913
vn 0.860723 -0.110603 0.496913
vn 0.993865 -0.110596 0.000000
vn 0.993865 0.110596 0.000000
vn 0.993865 0.110596 0.000000
vn 0.860723 0.110603 -0.496913
vn 0.844030 0.223908 -0.487317
vn 0.860723 0.110603 -0.496913
vn 0.496913 0.110603 -0.860723
vn 0.487317 0.223908 -0.844030
vn 0.496913 0.110603 -0.860723
vn 0.000000 0.110596 -0.993865
vn 0.000000 0.223903 -0.974612
vn 0.000000 0.110596 -0.993865
vn -0.496913 0.110603 -0.860723
vn -0.487317 0.223908 -0.844030
vn -0.496913 0.110603 -0.860723
vn -0.860723 0.110603 -0.496913
vn -0.844030 0.223908 -0.487317
vn -0.860723 0.110603 -0.496913
vn -0.993865 0.110596 0.000000
vn -0.974612 0.223903 0.000000
vn -0.993865 0.110596 0.000000
vn -0.860723 0.110603 0.496913
vn -0.844030 0.223908 0.487317
vn -0.860723 0.110603 0.496913
vn -0.496913 0.110603 0.860723
vn -0.487317 0.223908 0.844030
vn -0.496913 0.110603 0.860723
vn 0.000000 0.110596 0.993865
vn 0.000000 0.223903 0.974612
vn 0.000000 0.110596 0.993865
vn 0.496913 0.110603 0.860723
vn 0.487317 0.223908 0.844030
vn 0.496913 0.110603 0.860723
vn 0.860723 0.110603 0.496913
vn 0.844030 0.223908 0.487317
vn 0.860723 0.110603 0.496913
vn 0.993865 0.110596 0.000000
vn 0.974612 0.223903 0.000000
vn 0.000000 -1.000000 0.000000
vn 0.000000 -1.000000 0.000000
vn 0.000000 -1.000000 0.000000
vn 0.000000 -1.000000 0.000000
vn 0.000000 -1.000000 0.000000
vn 0.000000 -1.000000 0.000000
vn 0.000000 -1.000000 0.000000
vn 0.000000 -1.000000 0.000000
vn 0.000000 -1.000000 0.000000
vn 0.000000 -1.000000 0.000000
vn 0.000000 -1.000000 0.000000
vn 0.000000 -1.000000 0.000000
vn 0.000000 -1.000000 0.000000
vn 0.000000 -1.000000 0.000000
vn 0.000000 -1.000000 0.000000
vn 0.000000 -1.000000 0.000000
vn 0.000000 -1.000000 0.000000
vn 0.000000 -1.000000 0.000000
vn 0.000000 -1.000000 0.000000
vn 0.000000 -1.000000 0.000000
vn 0.000000 -1.000000 0.000000
vn 0.000000 -1.000000 0.000000
vn 0.000000 -1.000000 0.000000
vn 0.000000 -1.000000 0.000000
vn 0.000000 -1.000000 0.000000
vn 0.000000 -1.000000 0.000000
vn 0.000000 -1.000000 0.000000
vn 0.000000 1.000000 0.000000
vn 0.000000 1.000000 0.000000
vn 0.000000 1.000000 0.000000
vn 0.000000 1.000000 0.000000
vn 0.000000 1.000000 0.000000
vn 0.000000 1.000000 0.000000
vn 0.000000 1.000000 0.000000
vn 0.000000 1.000000 0.000000
vn 0.000000 1.000000 0.000000
vn 0.000000 1.000000 0.000000
vn 0.000000 1.000000 0.000000
vn 0.000000 1.000000 0.000000
vn 0.000000 1.000000 0.000000
vn 0.000000 1.000000 0.000000
vn 0.000000 1.000000 0.000000
vn 0.000000 1.000000 0.000000
vn 0.000000 1.000000 0.000000
vn 0.000000 1.000000 0.000000
vn 0.000000 1.000000 0.000000
vn 0.000000 1.000000 0.000000
vn 0.000000 1.000000 0.000000
vn 0.000000 1.000000 0.000000
vn 0.000000 1.000000 0.000000
vn 0.000000 1.000000 0.000000
vn 0.000000 1.000000 0.000000
vn 0.000000 1.000000 0.000000
vn 0.000000 1.000000 0.000000
s off
g barrel1
usemtl barrel:lambert2SG
f 1/1/1 2/2/2 3/3/3
f 4/4/4 5/5/5 2/2/6
f 6/6/7 7/7/8 5/5/9
f 8/8/10 9/9/11 7/7/12
f 10/10/13 11/11/14 9/9/15
f 12/12/16 13/13/17 11/11/18
f 14/14/19 15/15/20 13/13/21
f 16/16/22 17/17/23 15/15/24
f 18/18/25 19/19/26 17/17/27
f 20/20/28 21/21/29 19/19/30
f 22/22/31 23/23/32 21/21/33
f 24/24/34 3/25/35 23/23/36
f 3/3/37 25/26/38 26/27/39
f 2/2/40 27/28/41 25/26/42
f 5/5/43 28/29/44 27/28/45
f 7/7/46 29/30/47 28/29/48
f 9/9/49 30/31/50 29/30/51
f 11/11/52 31/32/53 30/31/54
f 13/13/55 32/33/56 31/32/57
f 15/15/58 33/34/59 32/33/60
f 17/17/61 34/35/62 33/34/63
f 19/19/64 35/36/65 34/35/66
f 21/21/67 36/37/68 35/36/69
f 23/23/70 26/38/71 36/37/72
f 26/27/73 37/39/74 38/40/75
f 25/26/76 39/41/77 37/42/78
f 27/28/79 40/43/80 39/44/81
f 28/29/82 41/45/83 40/46/84
f 29/30/85 42/47/86 41/48/87
f 30/31/88 43/49/89 42/50/90
f 31/32/91 44/51/92 43/52/93
f 32/33/94 45/53/95 44/54/96
f 33/34/97 46/55/98 45/56/99
f 34/35/100 47/57/101 46/58/102
f 35/36/103 48/59/104 47/60/105
f 36/37/106 38/61/107 48/62/108
f 24/63/109 22/64/110 1/65/111
f 38/66/112 37/67/113 48/87/114
f 1/1/115 4/68/116 2/2/117
f 4/4/118 6/69/119 5/5/120
f 6/6/121 8/70/122 7/7/123
f 8/8/124 10/71/125 9/9/126
f 10/10/127 12/72/128 11/11/129
f 12/12/130 14/73/131 13/13/132
f 14/14/133 16/74/134 15/15/135
f 16/16/136 18/75/137 17/17/138
f 18/18/139 20/76/140 19/19/141
f 20/20/142 22/77/143 21/21/144
f 22/22/145 24/78/146 23/23/147
f 24/24/148 1/79/149 3/25/150
f 3/3/151 2/2/152 25/26/153
f 2/2/154 5/5/155 27/28/156
f 5/5/157 7/7/158 28/29/159
f 7/7/160 9/9/161 29/30/162
f 9/9/163 11/11/164 30/31/165
f 11/11/166 13/13/167 31/32/168
f 13/13/169 15/15/170 32/33/171
f 15/15/172 17/17/173 33/34/174
f 17/17/175 19/19/176 34/35/177
f 19/19/178 21/21/179 35/36/180
f 21/21/181 23/23/182 36/37/183
f 23/23/184 3/25/185 26/38/186
f 26/27/187 25/26/188 37/39/189
f 25/26/190 27/28/191 39/41/192
f 27/28/193 28/29/194 40/43/195
f 28/29/196 29/30/197 41/45/198
f 29/30/199 30/31/200 42/47/201
f 30/31/202 31/32/203 43/49/204
f 31/32/205 32/33/206 44/51/207
f 32/33/208 33/34/209 45/53/210
f 33/34/211 34/35/212 46/55/213
f 34/35/214 35/36/215 47/57/216
f 35/36/217 36/37/218 48/59/219
f 36/37/220 26/38/221 38/61/222
f 22/64/223 20/88/224 18/89/225
f 18/90/226 16/80/227 14/81/228
f 14/81/229 12/82/230 10/83/231
f 18/91/232 14/81/233 10/83/234
f 10/83/235 8/84/236 6/85/237
f 6/85/238 4/86/239 1/65/240
f 10/83/241 6/85/242 1/65/243
f 18/92/244 10/83/245 1/65/246
f 22/64/247 18/93/248 1/65/249
f 37/67/250 39/94/251 40/95/252
f 40/96/253 41/97/254 42/98/255
f 42/99/256 43/100/257 44/101/258
f 40/102/259 42/103/260 44/104/261
f 44/105/262 45/106/263 46/107/264
f 46/108/265 47/109/266 48/110/267
f 44/111/268 46/112/269 48/113/270
f 40/114/271 44/115/272 48/116/273
f 37/67/274 40/117/275 48/118/276
